<?xml version="1.0" encoding="utf-8"?>
<!-- Generator: Adobe Illustrator 22.1.0, SVG Export Plug-In . SVG Version: 6.00 Build 0)  -->
<svg version="1.1" id="Layer_1" xmlns="http://www.w3.org/2000/svg" xmlns:xlink="http://www.w3.org/1999/xlink" x="0px" y="0px"
	 viewBox="0 0 500 500" style="enable-background:new 0 0 500 500;" xml:space="preserve">
<style type="text/css">
	.st0{fill:#EE58A0;}
	.st1{fill:#E24798;}
	.st2{fill:#F179B3;}
</style>
<g>
	<path class="st0" d="M425,396.4c-15.4,2.8-36.7,16.1-40.4,63c-34.9-22.9-85.8-56.6-130.6-97.8c23.5-22.1,43.1-44.3,58-66.2
		C353,339.3,393.9,375.9,425,396.4z"/>
	<path class="st0" d="M157.8,217.4l0.2,1l0,0.1c4.1,19.9,15.9,44.2,24.8,59l0.7,1.2l1.7,2.8c1,1.6,2,3.2,3.1,4.8
		c21-22.9,41-46.6,57.9-68.9c-4.8-6.3-9.2-12.5-13.3-18.2c-11.2-16-27.5-41.9-36.6-61c-1.1-2.2-2-4.3-3-6.5l-0.4-0.8
		c-0.3-0.7-0.6-1.3-0.9-2c-6.9-16.1-10.9-30.3-11.8-42.5c-1.7,4.4-3.5,9.1-5.2,14c-13,37.2-21.2,77.2-20.4,99.7
		C155.3,205.5,156.4,211.4,157.8,217.4z"/>
	<path class="st1" d="M252.4,102.5c23.3,0,40.9,10.1,52,19.1c8-19.9,11-36.5,8.8-49.2c-3.6-5.8-23.8-32.9-63.7-32.9
		c-43.3,0-60.9,29.3-62.6,31.8l-0.6,1.6c-2.1,12.9,1.2,30,9.8,50.8C207.1,113.7,225.3,102.5,252.4,102.5z"/>
	<path class="st2" d="M308.7,290.2l1.6-2.4c1.4-2.1,2.8-4.2,4.1-6.3l0.4-0.7c0.5-0.8,1.4-2.2,1.8-2.9l0.2-0.4
		c8.9-14.9,21.2-34.7,25.3-54.6l0.1-0.8c1.4-6,2.4-11.9,3.1-17.6c0.6-18.2-5.4-54.1-15-86.1c-3.4-11.3-7.1-22.1-11-31.9
		c-0.9,11.5-4.5,24.9-10.8,40.1c-0.4,0.8-0.7,1.7-1.1,2.6l-0.1,0.3c-2,4.7-3.9,8.8-5.9,12.8c-9.5,18.7-24.2,42.1-34.7,57.1
		c-4.2,6-8.9,12.5-13.9,19.1l-1.8,2.4c-17.5,23-38.3,47.7-60.2,71.4l-2,2.1c-41.4,44.4-82.8,81.5-114.2,102.2
		c47.6,8.5,40,37,40.4,63c35.2-23.1,86.6-57.1,131.8-98.8l2.1-1.9C273.4,335.7,293.5,312.7,308.7,290.2z"/>
</g>
</svg>
